<svg width="168" height="168" viewBox="0 0 168 168" fill="none" xmlns="http://www.w3.org/2000/svg">
<path d="M98.0388 1.63706C97.4965 2.17935 97.8838 2.92823 99.0717 3.67711C101.034 4.91662 105.192 9.1 106.87 11.579C108.962 14.6262 110.795 18.5255 111.648 21.7276C112.035 23.1737 112.397 24.4907 112.448 24.6456C112.5 24.878 113.275 24.9813 115.082 24.9813C118.103 24.9813 121.641 25.5494 123.501 26.3241C129.027 28.6482 132.41 33.1931 133.494 39.8039C133.933 42.567 133.649 48.5322 132.978 51.0629C131.325 57.2088 127.426 61.1598 121.28 62.9674C119.756 63.4064 118.465 63.5355 114.437 63.6388L109.453 63.7679V51.4244C109.453 38.2029 109.246 33.8387 108.42 28.9581C106.845 19.6876 103.152 12.8702 97.2641 8.37695C92.7966 4.99409 87.7869 3.05735 81.4344 2.28265C79.8592 2.10188 67.6447 1.99859 44.0681 1.99859H9V2.54088C9 2.82494 9.46482 3.59964 10.0329 4.24522C10.601 4.8908 11.3499 6.02703 11.7373 6.7759C13.2092 9.79723 13.1576 6.75008 13.0801 77.5318C13.0026 140.205 12.9768 142.658 12.512 144.027C11.8406 146.067 11.1433 147.358 10.0071 148.727C9.46482 149.398 9 150.173 9 150.457V150.999H33.7904C62.2993 150.999 59.8203 151.283 56.7473 148.288C52.5639 144.156 47.7091 136.719 45.0235 130.263L44.3005 128.533H40.4528H36.6309L36.6051 93.3356C36.6051 73.994 36.5276 50.753 36.476 41.689L36.3727 25.2396H55.8177C74.3588 25.2396 75.3659 25.2654 77.2768 25.756C78.3872 26.0401 79.8592 26.5824 80.5564 26.9439C82.2349 27.8735 84.1717 29.9394 85.1788 31.9278C86.7798 35.1299 86.7282 33.5805 86.7282 76.4988C86.7282 102.968 86.6507 116.241 86.4441 117.584C86.0826 120.295 84.8689 123.523 83.3453 125.847C82.6481 126.906 82.08 127.887 82.08 128.042C82.08 128.481 85.8243 132.277 88.4067 134.421C92.1511 137.571 97.3674 140.825 98.1679 140.541C99.1492 140.153 103.048 134.472 104.675 131.038C106.044 128.145 107.49 123.936 108.187 120.708C109.324 115.621 109.504 112.961 109.633 99.1459L109.763 85.9243H113.171C119.059 85.9243 122.364 86.5441 125.98 88.3001C129.156 89.8237 131.945 92.69 133.572 96.0213C135.508 100.076 135.896 102.012 135.896 107.616C135.87 113.22 135.508 115.001 133.572 118.978C132.565 120.992 131.971 121.819 130.266 123.523C127.916 125.847 126.289 126.88 123.268 127.913C121.383 128.559 120.737 128.636 116.244 128.765L111.286 128.92L109.711 132.148C107.542 136.59 105.14 140.076 102.196 143.097L99.6915 145.654L98.4003 145.525C96.7476 145.37 93.468 143.743 89.8011 141.29C79.9883 134.73 72.2155 125.382 69.3233 116.654C66.7409 108.804 67.2316 99.7915 70.5369 93.9812C72.6545 90.2368 75.3401 87.8869 79.4976 86.1051L81.6926 85.1755L81.7701 74.9236L81.8217 64.6718L78.9295 64.8525C71.9056 65.2657 65.7596 67.6414 60.2851 72.0314C52.9255 77.9449 48.4064 86.9831 46.6504 99.2233C46.1339 102.813 46.2114 112.755 46.7795 116.396C48.9487 130.34 55.0688 141.341 65.6563 150.405C73.5325 157.145 84.1458 162.542 93.7779 164.711C99.9497 166.106 110.744 166.467 110.744 165.305C110.744 165.099 110.021 164.221 109.117 163.343C106.612 160.812 105.347 157.816 105.321 154.434C105.321 153.117 105.424 152.703 105.941 152.109L106.56 151.386L114.798 151.206C123.707 151.025 126.574 150.741 131.532 149.45C146.018 145.679 155.392 134.937 158.285 118.72C158.956 114.898 159.214 107.952 158.801 103.975C157.768 94.007 154.54 86.3375 149.014 80.6822C146.096 77.7125 142.661 75.311 139.924 74.3297L139.02 74.0198L140.596 73.2709C146.742 70.4562 151.596 64.6718 154.23 57.0281C157.484 47.6542 157.458 35.5689 154.153 26.3241C149.246 12.5861 138.762 4.34851 123.294 2.10188C121.151 1.792 117.613 1.63706 109.324 1.55959C103.229 1.48212 98.1421 1.53377 98.0388 1.63706Z" fill="black"/>
</svg>
