<?xml version="1.0" standalone="no"?>
<!DOCTYPE svg PUBLIC "-//W3C//DTD SVG 20010904//EN"
 "http://www.w3.org/TR/2001/REC-SVG-20010904/DTD/svg10.dtd">
<svg version="1.0" xmlns="http://www.w3.org/2000/svg"
 width="1024.000000pt" height="1024.000000pt" viewBox="0 0 1024.000000 1024.000000"
 preserveAspectRatio="xMidYMid meet">

<g transform="translate(0.000000,1024.000000) scale(0.100000,-0.100000)"
fill="#000000" stroke="none">
<path d="M5748 8264 c-21 -21 -6 -50 40 -79 76 -48 237 -210 302 -306 81 -118
152 -269 185 -393 15 -56 29 -107 31 -113 2 -9 32 -13 102 -13 117 0 254 -22
326 -52 214 -90 345 -266 387 -522 17 -107 6 -338 -20 -436 -64 -238 -215
-391 -453 -461 -59 -17 -109 -22 -265 -26 l-193 -5 0 478 c0 512 -8 681 -40
870 -61 359 -204 623 -432 797 -173 131 -367 206 -613 236 -61 7 -534 11
-1447 11 l-1358 0 0 -21 c0 -11 18 -41 40 -66 22 -25 51 -69 66 -98 57 -117
55 1 52 -2740 -3 -2427 -4 -2522 -22 -2575 -26 -79 -53 -129 -97 -182 -21 -26
-39 -56 -39 -67 l0 -21 960 0 c1104 0 1008 -11 889 105 -162 160 -350 448
-454 698 l-28 67 -149 0 -148 0 -1 1363 c0 749 -3 1649 -5 2000 l-4 637 753 0
c718 0 757 -1 831 -20 43 -11 100 -32 127 -46 65 -36 140 -116 179 -193 62
-124 60 -64 60 -1726 0 -1025 -3 -1539 -11 -1591 -14 -105 -61 -230 -120 -320
-27 -41 -49 -79 -49 -85 0 -17 145 -164 245 -247 145 -122 347 -248 378 -237
38 15 189 235 252 368 53 112 109 275 136 400 44 197 51 300 56 835 l5 512
132 0 c228 0 356 -24 496 -92 123 -59 231 -170 294 -299 75 -157 90 -232 90
-449 -1 -217 -15 -286 -90 -440 -39 -78 -62 -110 -128 -176 -91 -90 -154 -130
-271 -170 -73 -25 -98 -28 -272 -33 l-192 -6 -61 -125 c-84 -172 -177 -307
-291 -424 l-97 -99 -50 5 c-64 6 -191 69 -333 164 -380 254 -681 616 -793 954
-100 304 -81 653 47 878 82 145 186 236 347 305 l85 36 3 397 2 397 -112 -7
c-272 -16 -510 -108 -722 -278 -285 -229 -460 -579 -528 -1053 -20 -139 -17
-524 5 -665 84 -540 321 -966 731 -1317 305 -261 716 -470 1089 -554 239 -54
657 -68 657 -23 0 8 -28 42 -63 76 -97 98 -146 214 -147 345 0 51 4 67 24 90
l24 28 319 7 c345 7 456 18 648 68 561 146 924 562 1036 1190 26 148 36 417
20 571 -40 386 -165 683 -379 902 -113 115 -246 208 -352 246 l-35 12 61 29
c238 109 426 333 528 629 126 363 125 831 -3 1189 -190 532 -596 851 -1195
938 -83 12 -220 18 -541 21 -236 3 -433 1 -437 -3z"/>
</g>
</svg>
